<svg xmlns="http://www.w3.org/2000/svg" viewBox="0 0 800 500">
  <rect width="800" height="500" fill="#05070d"/>
  <g fill="#e2e8f0">
    <circle cx="80" cy="60" r="1.6"/><circle cx="190" cy="120" r="1.1"/><circle cx="300" cy="50" r="1.9"/>
    <circle cx="420" cy="100" r="1.2"/><circle cx="540" cy="60" r="1.5"/><circle cx="660" cy="110" r="1.1"/>
    <circle cx="740" cy="40" r="1.7"/><circle cx="130" cy="200" r="1.2"/><circle cx="260" cy="170" r="1.5"/>
    <circle cx="390" cy="210" r="1.1"/><circle cx="520" cy="160" r="1.8"/><circle cx="640" cy="220" r="1.2"/>
    <circle cx="730" cy="180" r="1.4"/><circle cx="60" cy="300" r="1.3"/><circle cx="200" cy="320" r="1.6"/>
    <circle cx="350" cy="290" r="1.1"/><circle cx="480" cy="330" r="1.4"/><circle cx="610" cy="300" r="1.2"/>
  </g>
  <circle cx="400" cy="250" r="70" fill="#7dd3fc" opacity="0.07"/>
  <circle cx="400" cy="250" r="46" fill="#7dd3fc" opacity="0.09"/>
  <circle cx="400" cy="250" r="26" fill="#e2e8f0" opacity="0.16"/>
  <line x1="640" y1="80" x2="700" y2="140" stroke="#e2e8f0" stroke-width="1.4" opacity="0.7"/>
  <g stroke="#94a3b8" stroke-width="2" opacity="0.8">
    <path d="M340 430l30-60 30 60M355 410h30"/>
    <rect x="330" y="430" width="80" height="8" fill="#94a3b8"/>
  </g>
  <text x="400" y="60" text-anchor="middle" fill="#e2e8f0" font-family="monospace" font-size="22">ASTROPHOTOGRAPHY</text>
  <text x="400" y="478" text-anchor="middle" fill="#94a3b8" font-family="monospace" font-size="15">placeholder — replace with your shots of the night sky</text>
</svg>
